<svg xmlns="http://www.w3.org/2000/svg" viewBox="0 0 900 262" role="img" aria-label="Ost-West Reisen — Exklusiv Agentur Köln">
  <defs>
    <linearGradient id="text" x1="0" y1="0" x2="0" y2="1">
      <stop offset="0" stop-color="#5fd2c1"/>
      <stop offset="0.42" stop-color="#1ba295"/>
      <stop offset="1" stop-color="#0d6a5d"/>
    </linearGradient>
    <radialGradient id="disc" cx="0.38" cy="0.32" r="0.85">
      <stop offset="0" stop-color="#ffe27d"/>
      <stop offset="0.55" stop-color="#f9c344"/>
      <stop offset="1" stop-color="#eda423"/>
    </radialGradient>
    <linearGradient id="ray" x1="0" y1="0" x2="0" y2="1">
      <stop offset="0" stop-color="#fbCB4d"/>
      <stop offset="1" stop-color="#efab28"/>
    </linearGradient>
    <filter id="soft" x="-20%" y="-20%" width="140%" height="140%">
      <feDropShadow dx="0" dy="3" stdDeviation="3" flood-color="#0f5a50" flood-opacity="0.28"/>
    </filter>
  </defs>

  <!-- sun -->
  <g filter="url(#soft)" stroke="#ffffff" stroke-width="7" stroke-linejoin="round" paint-order="stroke">
    <g fill="url(#ray)">
      <g transform="rotate(0 110 118)"><rect x="101.5" y="14" width="17" height="40" rx="8.5"/></g>
      <g transform="rotate(30 110 118)"><rect x="103.5" y="28" width="13" height="26" rx="6.5"/></g>
      <g transform="rotate(60 110 118)"><rect x="101.5" y="14" width="17" height="40" rx="8.5"/></g>
      <g transform="rotate(90 110 118)"><rect x="103.5" y="28" width="13" height="26" rx="6.5"/></g>
      <g transform="rotate(120 110 118)"><rect x="101.5" y="14" width="17" height="40" rx="8.5"/></g>
      <g transform="rotate(150 110 118)"><rect x="103.5" y="28" width="13" height="26" rx="6.5"/></g>
      <g transform="rotate(180 110 118)"><rect x="101.5" y="14" width="17" height="40" rx="8.5"/></g>
      <g transform="rotate(210 110 118)"><rect x="103.5" y="28" width="13" height="26" rx="6.5"/></g>
      <g transform="rotate(240 110 118)"><rect x="101.5" y="14" width="17" height="40" rx="8.5"/></g>
      <g transform="rotate(270 110 118)"><rect x="103.5" y="28" width="13" height="26" rx="6.5"/></g>
      <g transform="rotate(300 110 118)"><rect x="101.5" y="14" width="17" height="40" rx="8.5"/></g>
      <g transform="rotate(330 110 118)"><rect x="103.5" y="28" width="13" height="26" rx="6.5"/></g>
    </g>
    <circle cx="110" cy="118" r="50" fill="url(#disc)"/>
  </g>
  <ellipse cx="94" cy="100" rx="22" ry="14" fill="#ffffff" opacity="0.35" transform="rotate(-24 94 100)"/>

  <!-- wordmark -->
  <g filter="url(#soft)" stroke="#ffffff" stroke-linejoin="round" paint-order="stroke">
    <path d="M285.38 139.57L285.38 139.57Q275.97 139.57 268.02 136.54Q260.06 133.52 254.18 127.98Q248.30 122.43 245.06 115.04Q241.81 107.65 241.81 98.80L241.81 98.80Q241.81 89.95 245.06 82.56Q248.30 75.17 254.18 69.62Q260.06 64.08 268.02 61.06Q275.97 58.03 285.38 58.03L285.38 58.03Q294.90 58.03 302.79 61.06Q310.69 64.08 316.51 69.62Q322.34 75.17 325.64 82.56Q328.94 89.95 328.94 98.80L328.94 98.80Q328.94 107.65 325.64 115.10Q322.34 122.54 316.51 128.03Q310.69 133.52 302.79 136.54Q294.90 139.57 285.38 139.57ZM285.38 121.20L285.38 121.20Q289.86 121.20 293.72 119.63Q297.58 118.06 300.44 115.10Q303.30 112.13 304.92 107.98Q306.54 103.84 306.54 98.80L306.54 98.80Q306.54 93.65 304.92 89.56Q303.30 85.47 300.44 82.50Q297.58 79.54 293.72 77.97Q289.86 76.40 285.38 76.40L285.38 76.40Q280.90 76.40 277.03 77.97Q273.17 79.54 270.31 82.50Q267.46 85.47 265.83 89.56Q264.21 93.65 264.21 98.80L264.21 98.80Q264.21 103.84 265.83 107.98Q267.46 112.13 270.31 115.10Q273.17 118.06 277.03 119.63Q280.90 121.20 285.38 121.20ZM361.65 139.01L361.65 139.01Q353.92 139.01 346.58 137.22Q339.25 135.42 334.77 132.74L334.77 132.74L341.15 118.18Q345.41 120.75 351.12 122.26Q356.83 123.78 362.32 123.78L362.32 123.78Q367.70 123.78 369.77 122.66Q371.84 121.54 371.84 119.63L371.84 119.63Q371.84 117.84 369.88 117Q367.92 116.16 364.73 115.71Q361.54 115.26 357.73 114.70Q353.92 114.14 350.06 113.19Q346.19 112.24 343 110.28Q339.81 108.32 337.90 104.96Q336 101.60 336 96.45L336 96.45Q336 90.62 339.42 86.09Q342.83 81.55 349.44 78.92Q356.05 76.29 365.57 76.29L365.57 76.29Q371.95 76.29 378.50 77.58Q385.06 78.86 389.54 81.44L389.54 81.44L383.15 95.89Q378.67 93.31 374.19 92.36Q369.71 91.41 365.68 91.41L365.68 91.41Q360.30 91.41 358.12 92.64Q355.94 93.87 355.94 95.66L355.94 95.66Q355.94 97.46 357.84 98.41Q359.74 99.36 362.94 99.86Q366.13 100.37 369.94 100.87Q373.74 101.38 377.61 102.38Q381.47 103.39 384.66 105.35Q387.86 107.31 389.76 110.62Q391.66 113.92 391.66 119.07L391.66 119.07Q391.66 124.67 388.25 129.15Q384.83 133.63 378.17 136.32Q371.50 139.01 361.65 139.01ZM427.95 139.01L427.95 139.01Q416.30 139.01 409.81 133.24Q403.31 127.47 403.31 115.82L403.31 115.82L403.31 63.74L424.59 63.74L424.59 115.60Q424.59 118.85 426.38 120.70Q428.18 122.54 430.98 122.54L430.98 122.54Q434.78 122.54 437.47 120.64L437.47 120.64L442.74 135.54Q440.05 137.33 436.13 138.17Q432.21 139.01 427.95 139.01ZM438.48 93.09L394.46 93.09L394.46 77.30L438.48 77.30L438.48 93.09ZM482.16 114.26L449.46 114.26L449.46 97.90L482.16 97.90L482.16 114.26ZM538.50 138L514.75 138L489.33 59.60L512.18 59.60L533.57 127.47L522.03 127.47L544.54 59.60L564.93 59.60L586.21 127.47L575.12 127.47L597.18 59.60L618.35 59.60L592.93 138L569.18 138L551.04 80.32L557.42 80.32L538.50 138ZM658.78 139.01L658.78 139.01Q648.03 139.01 640.02 134.92Q632.02 130.83 627.59 123.72Q623.17 116.61 623.17 107.54L623.17 107.54Q623.17 98.46 627.48 91.35Q631.79 84.24 639.41 80.26Q647.02 76.29 656.54 76.29L656.54 76.29Q665.50 76.29 672.90 79.93Q680.29 83.57 684.66 90.62Q689.02 97.68 689.02 107.76L689.02 107.76Q689.02 108.88 688.91 110.34Q688.80 111.79 688.69 113.02L688.69 113.02L640.64 113.02L640.64 101.82L677.38 101.82L669.31 104.96Q669.42 100.82 667.80 97.79Q666.18 94.77 663.32 93.09Q660.46 91.41 656.66 91.41L656.66 91.41Q652.85 91.41 649.99 93.09Q647.14 94.77 645.57 97.85Q644 100.93 644 105.07L644 105.07L644 108.32Q644 112.80 645.85 116.05Q647.70 119.30 651.17 121.03Q654.64 122.77 659.46 122.77L659.46 122.77Q663.94 122.77 667.13 121.48Q670.32 120.19 673.46 117.50L673.46 117.50L684.66 129.15Q680.29 133.97 673.90 136.49Q667.52 139.01 658.78 139.01ZM720.94 139.01L720.94 139.01Q713.22 139.01 705.88 137.22Q698.54 135.42 694.06 132.74L694.06 132.74L700.45 118.18Q704.70 120.75 710.42 122.26Q716.13 123.78 721.62 123.78L721.62 123.78Q726.99 123.78 729.06 122.66Q731.14 121.54 731.14 119.63L731.14 119.63Q731.14 117.84 729.18 117Q727.22 116.16 724.02 115.71Q720.83 115.26 717.02 114.70Q713.22 114.14 709.35 113.19Q705.49 112.24 702.30 110.28Q699.10 108.32 697.20 104.96Q695.30 101.60 695.30 96.45L695.30 96.45Q695.30 90.62 698.71 86.09Q702.13 81.55 708.74 78.92Q715.34 76.29 724.86 76.29L724.86 76.29Q731.25 76.29 737.80 77.58Q744.35 78.86 748.83 81.44L748.83 81.44L742.45 95.89Q737.97 93.31 733.49 92.36Q729.01 91.41 724.98 91.41L724.98 91.41Q719.60 91.41 717.42 92.64Q715.23 93.87 715.23 95.66L715.23 95.66Q715.23 97.46 717.14 98.41Q719.04 99.36 722.23 99.86Q725.42 100.37 729.23 100.87Q733.04 101.38 736.90 102.38Q740.77 103.39 743.96 105.35Q747.15 107.31 749.06 110.62Q750.96 113.92 750.96 119.07L750.96 119.07Q750.96 124.67 747.54 129.15Q744.13 133.63 737.46 136.32Q730.80 139.01 720.94 139.01ZM787.25 139.01L787.25 139.01Q775.60 139.01 769.10 133.24Q762.61 127.47 762.61 115.82L762.61 115.82L762.61 63.74L783.89 63.74L783.89 115.60Q783.89 118.85 785.68 120.70Q787.47 122.54 790.27 122.54L790.27 122.54Q794.08 122.54 796.77 120.64L796.77 120.64L802.03 135.54Q799.34 137.33 795.42 138.17Q791.50 139.01 787.25 139.01ZM797.78 93.09L753.76 93.09L753.76 77.30L797.78 77.30L797.78 93.09Z" fill="url(#text)" stroke-width="12"/>
    <path d="M824.50 72.10L824.50 72.10Q821.95 72.10 819.77 71.18Q817.60 70.27 815.97 68.62Q814.33 66.97 813.43 64.79Q812.53 62.62 812.53 60.10L812.53 60.10Q812.53 57.58 813.45 55.41Q814.37 53.23 816 51.58Q817.63 49.93 819.82 49.02Q822.02 48.10 824.57 48.10L824.57 48.10Q827.12 48.10 829.31 49.00Q831.50 49.90 833.12 51.53Q834.73 53.16 835.63 55.32Q836.54 57.48 836.54 60.03L836.54 60.03Q836.54 62.58 835.62 64.78Q834.70 66.97 833.05 68.62Q831.40 70.27 829.23 71.18Q827.05 72.10 824.50 72.10ZM831.44 66.59L827.19 66.59L823.99 61.66L828.24 61.66L831.44 66.59ZM824.50 69.52L824.50 69.52Q826.51 69.52 828.19 68.79Q829.87 68.06 831.13 66.78Q832.39 65.51 833.09 63.77Q833.78 62.04 833.78 60.03L833.78 60.03Q833.78 58.03 833.10 56.31Q832.42 54.59 831.20 53.33Q829.97 52.08 828.29 51.38Q826.61 50.68 824.57 50.68L824.57 50.68Q822.56 50.68 820.86 51.40Q819.16 52.11 817.90 53.40Q816.65 54.69 815.97 56.39Q815.29 58.09 815.29 60.10L815.29 60.10Q815.29 62.07 815.97 63.81Q816.65 65.54 817.89 66.81Q819.13 68.09 820.83 68.80Q822.53 69.52 824.50 69.52ZM823.31 66.59L819.13 66.59L819.13 53.61L825.01 53.61Q827.80 53.61 829.35 54.88Q830.89 56.16 830.89 58.33L830.89 58.33Q830.89 60.64 829.35 61.85Q827.80 63.06 825.04 63.06L825.04 63.06L823.31 63.06L823.31 66.59ZM823.31 56.60L823.31 60.07L824.77 60.07Q825.69 60.07 826.22 59.61Q826.74 59.15 826.74 58.33L826.74 58.33Q826.74 57.48 826.22 57.04Q825.69 56.60 824.77 56.60L824.77 56.60L823.31 56.60Z" fill="#138375" stroke-width="6"/>
    <path d="M569.06 194L562.21 194L568.09 164.60L580.06 164.60Q585.56 164.60 588.57 166.99Q591.57 169.39 591.57 173.71L591.57 173.71Q591.57 177.41 589.83 180.12Q588.08 182.83 584.87 184.30Q581.66 185.77 577.29 185.77L577.29 185.77L567.71 185.77L571.28 182.79L569.06 194ZM588.29 194L581.11 194L575.11 183.33L582.25 183.33L588.29 194ZM574.48 166.83L571.12 183.58L568.76 180.35L577.54 180.35Q580.94 180.35 582.81 178.82Q584.68 177.28 584.68 174.34L584.68 174.34Q584.68 172.20 583.23 171.17Q581.78 170.14 579.18 170.14L579.18 170.14L570.91 170.14L574.48 166.83ZM615.26 181.74L616.31 176.44L630.46 176.44L629.41 181.74L615.26 181.74ZM618.07 170.06L614.38 188.54L630.42 188.54L629.29 194L606.52 194L612.40 164.60L634.62 164.60L633.49 170.06L618.07 170.06ZM654.99 194L648.14 194L654.02 164.60L660.87 164.60L654.99 194ZM685.61 194.50L685.61 194.50Q683.21 194.50 680.97 194.06Q678.72 193.62 676.89 192.87Q675.07 192.11 673.81 191.23L673.81 191.23L676.58 185.98Q677.96 186.94 679.54 187.64Q681.11 188.33 682.84 188.69Q684.56 189.04 686.28 189.04L686.28 189.04Q688.17 189.04 689.54 188.62Q690.90 188.20 691.64 187.45Q692.37 186.69 692.37 185.60L692.37 185.60Q692.37 184.59 691.57 183.96Q690.77 183.33 689.49 182.89Q688.21 182.45 686.66 182.03Q685.10 181.61 683.53 181.04Q681.95 180.48 680.67 179.62Q679.39 178.75 678.59 177.41Q677.80 176.07 677.80 174.05L677.80 174.05Q677.80 171.03 679.46 168.80Q681.11 166.57 684.14 165.34Q687.16 164.10 691.24 164.10L691.24 164.10Q694.22 164.10 696.86 164.75Q699.51 165.40 701.40 166.62L701.40 166.62L698.84 171.82Q697.16 170.69 695.10 170.12Q693.04 169.56 690.86 169.56L690.86 169.56Q688.88 169.56 687.48 170.02Q686.07 170.48 685.34 171.30Q684.60 172.12 684.60 173.17L684.60 173.17Q684.60 174.22 685.38 174.87Q686.15 175.52 687.46 175.96Q688.76 176.40 690.31 176.82Q691.87 177.24 693.42 177.79Q694.97 178.33 696.28 179.17Q697.58 180.01 698.38 181.29Q699.17 182.58 699.17 184.51L699.17 184.51Q699.17 187.53 697.49 189.78Q695.81 192.03 692.77 193.26Q689.72 194.50 685.61 194.50ZM724.33 181.74L725.38 176.44L739.54 176.44L738.49 181.74L724.33 181.74ZM727.15 170.06L723.45 188.54L739.49 188.54L738.36 194L715.60 194L721.48 164.60L743.69 164.60L742.56 170.06L727.15 170.06ZM763.94 194L757.22 194L763.10 164.60L768.73 164.60L781.37 185.89L779.14 185.77L783.34 164.60L790.06 164.60L784.18 194L778.60 194L765.91 172.71L768.18 172.83L763.94 194Z" fill="#138375" stroke-width="7"/>
    <path d="M246.75 236.04L247.58 231.80L261.41 231.80L260.58 236.04L246.75 236.04ZM249.41 224.59L245.60 243.68L261.29 243.68L260.42 248L239.62 248L245.17 220.27L265.41 220.27L264.54 224.59L249.41 224.59ZM271.35 248L265.17 248L279.79 232.28L279.43 235.21L271.31 220.27L276.78 220.27L282.88 231.64L280.58 231.52L290.95 220.27L296.82 220.27L283.07 235.17L283.19 232.24L291.83 248L286.32 248L279.86 235.92L282.20 236.04L271.35 248ZM310.68 235.88L304.38 241.35L305.06 235.29L322.32 220.27L328.82 220.27L314.01 233.15L310.68 235.88ZM303.47 248L298.36 248L303.91 220.27L309.02 220.27L303.47 248ZM323.79 248L318.05 248L309.53 235.37L313.06 231.88L323.79 248ZM349.26 248L329.61 248L335.16 220.27L340.31 220.27L335.63 243.64L350.13 243.64L349.26 248ZM367.99 248.40L367.99 248.40Q364.03 248.40 361.44 246.85Q358.84 245.31 357.79 242.51Q356.74 239.72 357.50 235.92L357.50 235.92L360.62 220.27L365.77 220.27L362.64 235.84Q361.85 239.88 363.42 241.88Q364.98 243.88 368.51 243.88L368.51 243.88Q371.79 243.88 373.81 241.96Q375.83 240.04 376.66 235.80L376.66 235.80L379.79 220.27L384.82 220.27L381.70 236.16Q380.47 242.26 377.02 245.33Q373.58 248.40 367.99 248.40ZM397.62 248.40L397.62 248.40Q395.44 248.40 393.40 247.96Q391.36 247.52 389.68 246.79Q387.99 246.06 386.88 245.15L386.88 245.15L389.06 241.11Q390.21 242.06 391.68 242.73Q393.14 243.41 394.79 243.76Q396.43 244.12 398.09 244.12L398.09 244.12Q400.11 244.12 401.62 243.64Q403.12 243.17 403.93 242.30Q404.75 241.43 404.75 240.20L404.75 240.20Q404.75 239.09 403.99 238.40Q403.24 237.70 401.99 237.25Q400.75 236.79 399.26 236.38Q397.78 235.96 396.27 235.42Q394.77 234.89 393.54 234.08Q392.31 233.27 391.54 232.00Q390.77 230.73 390.77 228.83L390.77 228.83Q390.77 226.10 392.29 224.10Q393.81 222.10 396.53 220.99Q399.24 219.88 402.85 219.88L402.85 219.88Q405.54 219.88 407.95 220.47Q410.37 221.07 412.11 222.22L412.11 222.22L410.09 226.30Q408.55 225.27 406.61 224.71Q404.67 224.16 402.57 224.16L402.57 224.16Q400.51 224.16 399.00 224.67Q397.50 225.19 396.71 226.10Q395.91 227.01 395.87 228.24L395.87 228.24Q395.87 229.38 396.63 230.08Q397.38 230.77 398.61 231.25Q399.84 231.72 401.34 232.14Q402.85 232.55 404.33 233.07Q405.82 233.58 407.08 234.38Q408.35 235.17 409.10 236.38Q409.86 237.58 409.86 239.41L409.86 239.41Q409.86 242.14 408.33 244.16Q406.81 246.18 404.05 247.29Q401.30 248.40 397.62 248.40ZM420.99 248L415.84 248L421.38 220.27L426.53 220.27L420.99 248ZM444.08 248L439.01 248L432.47 220.27L437.78 220.27L443.60 245.35L440.31 245.35L456.35 220.27L461.70 220.27L444.08 248ZM476.99 248L471.48 248L489.51 220.27L494.62 220.27L501.51 248L496.40 248L490.61 222.93L492.67 222.93L476.99 248ZM496.32 241.58L478.53 241.58L480.71 237.54L495.65 237.54L496.32 241.58ZM521.51 248.40L521.51 248.40Q517.35 248.40 514.34 246.89Q511.33 245.39 509.69 242.71Q508.04 240.04 508.04 236.55L508.04 236.55Q508.04 233.03 509.25 230.00Q510.46 226.97 512.72 224.71Q514.97 222.45 518.16 221.17Q521.35 219.88 525.27 219.88L525.27 219.88Q529.07 219.88 531.89 221.07Q534.70 222.26 536.40 224.43L536.40 224.43L532.68 227.52Q531.29 225.86 529.41 225.13Q527.53 224.39 525.03 224.39L525.03 224.39Q522.34 224.39 520.16 225.29Q517.98 226.18 516.44 227.80Q514.89 229.42 514.06 231.58Q513.23 233.74 513.23 236.24L513.23 236.24Q513.23 238.49 514.22 240.24Q515.21 241.98 517.19 242.93Q519.17 243.88 522.10 243.88L522.10 243.88Q524.28 243.88 526.20 243.15Q528.12 242.42 529.83 240.95L529.83 240.95L531.85 244.99Q529.79 246.61 527.07 247.50Q524.36 248.40 521.51 248.40ZM531.85 244.99L527.17 244.20L529.23 233.82L534.10 233.82L531.85 244.99ZM547.53 236.04L548.36 231.80L562.19 231.80L561.35 236.04L547.53 236.04ZM550.18 224.59L546.38 243.68L562.07 243.68L561.20 248L540.40 248L545.95 220.27L566.19 220.27L565.31 224.59L550.18 224.59ZM574.42 248L569.31 248L574.86 220.27L579.10 220.27L591.73 241.78L590.11 241.58L594.35 220.27L599.46 220.27L593.91 248L589.67 248L577.08 226.49L578.70 226.69L574.42 248ZM614.55 248L609.40 248L614.07 224.63L604.88 224.63L605.75 220.27L629.24 220.27L628.37 224.63L619.18 224.63L614.55 248ZM642.27 248.40L642.27 248.40Q638.31 248.40 635.72 246.85Q633.12 245.31 632.07 242.51Q631.02 239.72 631.78 235.92L631.78 235.92L634.90 220.27L640.05 220.27L636.92 235.84Q636.13 239.88 637.70 241.88Q639.26 243.88 642.79 243.88L642.79 243.88Q646.07 243.88 648.09 241.96Q650.11 240.04 650.95 235.80L650.95 235.80L654.07 220.27L659.10 220.27L655.98 236.16Q654.75 242.26 651.30 245.33Q647.86 248.40 642.27 248.40ZM668.02 248L662.83 248L668.37 220.27L679.15 220.27Q684.18 220.27 686.93 222.47Q689.68 224.67 689.68 228.63L689.68 228.63Q689.68 232.12 688.08 234.63Q686.47 237.15 683.50 238.51Q680.53 239.88 676.45 239.88L676.45 239.88L667.42 239.88L670.08 237.54L668.02 248ZM686.51 248L681.05 248L675.38 237.94L680.85 237.94L686.51 248ZM673.20 222.06L669.96 238.14L668.21 235.64L676.61 235.64Q680.37 235.64 682.43 233.98Q684.49 232.32 684.49 229.11L684.49 229.11Q684.49 226.85 682.97 225.74Q681.44 224.63 678.59 224.63L678.59 224.63L670.51 224.63L673.20 222.06ZM719.78 235.88L713.48 241.35L714.16 235.29L731.43 220.27L737.92 220.27L723.11 233.15L719.78 235.88ZM712.57 248L707.46 248L713.01 220.27L718.12 220.27L712.57 248ZM732.89 248L727.15 248L718.63 235.37L722.16 231.88L732.89 248ZM752.58 248.40L752.58 248.40Q748.38 248.40 745.41 246.89Q742.44 245.39 740.87 242.71Q739.31 240.04 739.31 236.55L739.31 236.55Q739.31 233.03 740.50 230.00Q741.69 226.97 743.94 224.71Q746.20 222.45 749.33 221.17Q752.46 219.88 756.30 219.88L756.30 219.88Q760.46 219.88 763.43 221.38Q766.40 222.89 767.98 225.56Q769.57 228.24 769.57 231.72L769.57 231.72Q769.57 235.25 768.36 238.28Q767.15 241.31 764.90 243.56Q762.64 245.82 759.53 247.11Q756.42 248.40 752.58 248.40ZM753.01 243.88L753.01 243.88Q755.63 243.88 757.73 242.95Q759.83 242.02 761.31 240.38Q762.80 238.73 763.59 236.57Q764.38 234.41 764.38 232.04L764.38 232.04Q764.38 229.78 763.39 228.04Q762.40 226.30 760.50 225.34Q758.60 224.39 755.83 224.39L755.83 224.39Q753.25 224.39 751.13 225.32Q749.01 226.26 747.53 227.90Q746.04 229.54 745.27 231.70Q744.50 233.86 744.50 236.24L744.50 236.24Q744.50 238.49 745.47 240.24Q746.44 241.98 748.34 242.93Q750.24 243.88 753.01 243.88ZM762.12 217.58L762.12 217.58Q761.17 217.58 760.54 216.99Q759.90 216.39 759.90 215.44L759.90 215.44Q759.90 214.25 760.66 213.52Q761.41 212.79 762.44 212.79L762.44 212.79Q763.35 212.79 764.02 213.38Q764.70 213.98 764.70 214.97L764.70 214.97Q764.70 216.12 763.92 216.85Q763.15 217.58 762.12 217.58ZM754.48 217.58L754.48 217.58Q753.53 217.58 752.87 216.99Q752.22 216.39 752.22 215.44L752.22 215.44Q752.22 214.25 752.99 213.52Q753.77 212.79 754.72 212.79L754.72 212.79Q755.71 212.79 756.34 213.38Q756.97 213.98 756.97 214.97L756.97 214.97Q756.97 216.12 756.20 216.85Q755.43 217.58 754.48 217.58ZM794.09 248L774.44 248L779.99 220.27L785.13 220.27L780.46 243.64L794.96 243.64L794.09 248ZM805.65 248L800.54 248L806.09 220.27L810.32 220.27L822.96 241.78L821.34 241.58L825.57 220.27L830.68 220.27L825.14 248L820.90 248L808.30 226.49L809.93 226.69L805.65 248Z" fill="#11776a" stroke-width="6"/>
  </g>
</svg>
